<?xml version="1.0" encoding="UTF-8"?>
<svg version="1.1" xmlns="http://www.w3.org/2000/svg" width="630" height="629">
<path d="M0 0 C207.9 0 415.8 0 630 0 C630 207.57 630 415.14 630 629 C422.1 629 214.2 629 0 629 C0 421.43 0 213.86 0 0 Z " fill="#FEFEFE" transform="translate(0,0)"/>
<path d="M0 0 C0.74894531 0.63679688 1.49789063 1.27359375 2.26953125 1.9296875 C15.76520621 13.74702468 28.43558025 26.48551588 39 41 C39.85649066 42.14994831 40.71326433 43.29968589 41.5703125 44.44921875 C81.30632765 98.332404 96.0739411 166.13221793 86.90869141 232.0534668 C84.94811813 244.65538546 81.78761346 256.83510103 78 269 C77.73880371 269.86560547 77.47760742 270.73121094 77.20849609 271.62304688 C68.64317599 299.67102756 54.15652867 326.93836236 35.30761719 349.43212891 C34.03107455 350.96274071 32.78460648 352.5182773 31.5390625 354.07421875 C19.92290191 368.44103907 6.6072378 381.93625415 -8.35693359 392.80566406 C-10.00854401 394.0062106 -11.63929285 395.2315774 -13.26953125 396.4609375 C-38.54183914 415.2741896 -69.78752632 432.00304969 -101 438 C-101.99 437.67 -102.98 437.34 -104 437 C-103.18660156 436.57332031 -102.37320312 436.14664062 -101.53515625 435.70703125 C-86.10439228 427.28867296 -72.44693657 416.37885487 -60 404 C-59.49662109 403.50064941 -58.99324219 403.00129883 -58.47460938 402.48681641 C-45.50992119 389.45139661 -35.42852578 374.28541393 -27 358 C-26.39671875 356.83597656 -25.7934375 355.67195313 -25.171875 354.47265625 C-21.44747021 346.88124559 -18.4549486 339.09132115 -15.625 331.125 C-15.10570923 329.68048462 -15.10570923 329.68048462 -14.57592773 328.20678711 C-12.5775173 322.41485189 -11.43943371 317.11440622 -11 311 C-11.78761719 311.83402344 -12.57523437 312.66804688 -13.38671875 313.52734375 C-28.36574681 329.12003776 -47.61559395 342.11694665 -69 347 C-69.99 346.67 -70.98 346.34 -72 346 C-71.46632813 345.50113281 -70.93265625 345.00226563 -70.3828125 344.48828125 C-44.5048995 319.55056924 -30.56225482 284.65284655 -29.64648438 248.96069336 C-29.35490864 213.02067033 -43.4099325 179.15629292 -68.44433594 153.52099609 C-74.81742095 147.18071694 -81.79290079 141.80221351 -89.0090332 136.46899414 C-121.25941903 112.60041112 -147.63870429 81.38265261 -158 42 C-158.48146484 40.1746875 -158.48146484 40.1746875 -158.97265625 38.3125 C-163.38956655 18.59048191 -162.92290006 -4.88677593 -156 -24 C-165.2055503 -17.19000207 -173.74951353 -9.93816522 -182 -2 C-182.49274414 -1.52916992 -182.98548828 -1.05833984 -183.49316406 -0.57324219 C-190.21537268 5.87772735 -196.30961375 12.62572394 -202 20 C-202.41185547 20.53012695 -202.82371094 21.06025391 -203.24804688 21.60644531 C-237.46653236 65.93610734 -256.54843836 119.4179116 -256.3125 175.4375 C-256.31034485 176.36030762 -256.3081897 177.28311523 -256.30596924 178.23388672 C-256.18479794 210.64896124 -250.51178777 240.48605884 -238.84448242 270.77709961 C-238.18877809 272.5030863 -237.58386456 274.24840633 -237 276 C-247.38910116 272.87111866 -255.81291027 265.91354243 -264 259 C-264.81210937 258.33484375 -265.62421875 257.6696875 -266.4609375 256.984375 C-284.27712404 241.80970508 -299.49339562 217.59341377 -302 194 C-302.66 194 -303.32 194 -304 194 C-304.17668213 194.53584717 -304.35336426 195.07169434 -304.53540039 195.6237793 C-305.88134264 199.68614945 -307.25307416 203.73611134 -308.68359375 207.76953125 C-314.63453967 224.75571013 -319.14002541 242.24353161 -319.16796875 260.34765625 C-319.17129715 261.12201523 -319.17462555 261.89637421 -319.17805481 262.69419861 C-319.18308626 264.32534193 -319.18546431 265.95649541 -319.18530273 267.58764648 C-319.18747285 270.03191993 -319.20562392 272.47572894 -319.22460938 274.91992188 C-319.40727601 325.25175308 -297.64628906 371.53684243 -262.9375 407.3125 C-250.80431804 419.04705586 -236.74035616 428.84690923 -222 437 C-225.02106403 437.95364417 -226.88792281 438.01812529 -229.921875 437.13671875 C-230.68749756 436.9147583 -231.45312012 436.69279785 -232.24194336 436.46411133 C-233.4834314 436.07968872 -233.4834314 436.07968872 -234.75 435.6875 C-235.62470947 435.41897217 -236.49941895 435.15044434 -237.40063477 434.8737793 C-267.96381787 425.16465163 -297.55985942 409.88900905 -322 389 C-322.95003906 388.23171875 -323.90007812 387.4634375 -324.87890625 386.671875 C-338.15573108 375.86116033 -350.68149817 363.68741567 -361 350 C-361.41378906 349.46262207 -361.82757813 348.92524414 -362.25390625 348.37158203 C-385.01449153 318.76789075 -399.76256111 286.07477038 -409 250 C-409.18288574 249.29601074 -409.36577148 248.59202148 -409.55419922 247.86669922 C-414.10828472 230.16263308 -415.23247074 212.0891875 -415.25 193.875 C-415.25151062 192.77199051 -415.25151062 192.77199051 -415.25305176 191.646698 C-415.23397787 170.83624929 -413.19466458 150.18845416 -408 130 C-407.70101807 128.83307617 -407.70101807 128.83307617 -407.39599609 127.64257812 C-398.4591239 93.71135898 -381.90406061 62.27803822 -360 35 C-359.2059375 33.9996875 -358.411875 32.999375 -357.59375 31.96875 C-345.86928744 17.63885132 -332.66581295 4.16581665 -317.68603516 -6.75830078 C-315.94806168 -8.03825055 -314.24494373 -9.35623438 -312.54296875 -10.68359375 C-302.3232171 -18.55365568 -291.32456503 -24.86119983 -280 -31 C-279.30293945 -31.38285156 -278.60587891 -31.76570313 -277.88769531 -32.16015625 C-197.85862347 -75.77579923 -93.44491145 -66.59981213 0 0 Z " fill="#D7C378" transform="translate(480,108)"/>
<path d="M0 0 C2.0631549 1.1668716 2.0631549 1.1668716 5.796875 0.875 C6.869375 0.215 7.941875 -0.445 9.046875 -1.125 C16.77356129 -5.1833156 27.59473737 -3.98553428 35.734375 -1.75 C37.4225079 -1.21030903 39.11003372 -0.66871456 40.796875 -0.125 C43.78727008 0.59636723 46.78794614 1.23375287 49.796875 1.875 C44.19406557 14.42529312 34.75472393 22.92447165 21.98828125 28.09765625 C9.12900428 32.65914665 -4.66184885 32.3339565 -17.203125 26.875 C-25.1025232 22.55439007 -32.15598232 17.73438907 -37.453125 10.375 C-38.13890625 9.4365625 -38.8246875 8.498125 -39.53125 7.53125 C-41.00357157 5.1920475 -41.77102481 3.56927177 -42.203125 0.875 C-41.501875 0.83761719 -40.800625 0.80023438 -40.078125 0.76171875 C-33.60218326 0.35405788 -33.60218326 0.35405788 -27.515625 -1.6875 C-19.22342887 -5.1482926 -7.69597412 -4.43288109 0 0 Z " fill="#D7C379" transform="translate(313.203125,483.125)"/>
</svg>
