<?xml version="1.0" encoding="UTF-8"?>
<svg version="1.1" xmlns="http://www.w3.org/2000/svg" width="2478" height="1307">
<path d="M0 0 C817.74 0 1635.48 0 2478 0 C2478 431.31 2478 862.62 2478 1307 C1660.26 1307 842.52 1307 0 1307 C0 875.69 0 444.38 0 0 Z " fill="#FEFEFE" transform="translate(0,0)"/>
<path d="M0 0 C1.58796387 0.29003906 1.58796387 0.29003906 3.20800781 0.5859375 C45.92559372 8.62572712 85.95755503 27.76464886 119 56 C119.74894531 56.63679688 120.49789063 57.27359375 121.26953125 57.9296875 C134.76840277 69.74982372 147.42262498 82.49158613 158 97 C158.84447783 98.12673271 159.68953421 99.25303203 160.53515625 100.37890625 C186.50779028 135.39245717 201.6904601 176.93121618 207 220 C207.1023999 220.7628833 207.2047998 221.5257666 207.31030273 222.31176758 C208.36395067 231.09974044 208.28736738 239.97395491 208.3125 248.8125 C208.31511841 249.69350372 208.31773682 250.57450745 208.32043457 251.48220825 C208.32555187 267.63806077 206.97253533 283.09342938 204 299 C203.86110352 299.79164551 203.72220703 300.58329102 203.57910156 301.39892578 C193.58876103 357.00673725 158.07522183 413.01924205 113 447 C112.46262207 447.41378906 111.92524414 447.82757812 111.37158203 448.25390625 C85.85267738 467.87393269 56.65939241 483.41517149 25.625 492.1875 C24.88822021 492.39608643 24.15144043 492.60467285 23.39233398 492.81958008 C20.0606228 493.69445818 18.33646627 494.11215542 15 493 C15.8971875 492.48953125 16.794375 491.9790625 17.71875 491.453125 C62.72870673 465.40981987 93.62968902 424.17822092 107.1015625 374 C107.7729199 371.33966787 108.41719048 368.68092381 109 366 C108.14019531 366.90621094 107.28039063 367.81242187 106.39453125 368.74609375 C91.08548577 384.63209683 71.86612698 398.00694738 50 403 C49.01 402.67 48.02 402.34 47 402 C47.44988281 401.58492187 47.89976562 401.16984375 48.36328125 400.7421875 C74.33494904 375.86351575 88.19375792 341.11034655 89.35327148 305.4230957 C89.68909574 273.76882982 78.75019474 241.93323432 58 218 C56.98873047 216.78957031 56.98873047 216.78957031 55.95703125 215.5546875 C47.74189672 206.00777342 38.0252226 198.44201805 27.9375 191 C20.84090147 185.752604 14.34234887 180.14918088 8 174 C7.43539063 173.46117187 6.87078125 172.92234375 6.2890625 172.3671875 C-20.67403716 146.58151577 -40.94799435 112.18800985 -42.23828125 74.13671875 C-42.7518299 43.50365981 -42.7518299 43.50365981 -37 32 C-46.2055503 38.80999793 -54.74951353 46.06183478 -63 54 C-63.49274414 54.47083008 -63.98548828 54.94166016 -64.49316406 55.42675781 C-71.21390469 61.87631859 -77.32077384 68.6229043 -83 76 C-83.77150391 76.9895166 -83.77150391 76.9895166 -84.55859375 77.99902344 C-113.09863571 114.79458562 -130.46647277 157.80597238 -136 204 C-136.1403064 205.03193481 -136.1403064 205.03193481 -136.28344727 206.0847168 C-141.50834959 249.14901073 -133.56227341 291.86571595 -118 332 C-141.08623556 325.07074921 -160.75390801 302.49842067 -171.95947266 281.98828125 C-183 260.89160019 -183 260.89160019 -183 250 C-183.66 250 -184.32 250 -185 250 C-185.17740723 250.54092285 -185.35481445 251.0818457 -185.53759766 251.63916016 C-186.85335112 255.62232806 -188.20233127 259.58557899 -189.6484375 263.5234375 C-196.38526024 282.22652714 -200.64139135 302.07160521 -201 322 C-201.03867188 322.85851562 -201.07734375 323.71703125 -201.1171875 324.6015625 C-202.38568953 370.12669083 -185.01225447 416.95856163 -155 451 C-154.13761719 451.98355469 -153.27523438 452.96710938 -152.38671875 453.98046875 C-138.07349598 470.07166815 -121.59418393 482.31823476 -103 493 C-106.02106403 493.95364417 -107.88792281 494.01812529 -110.921875 493.13671875 C-111.68733643 492.91483887 -112.45279785 492.69295898 -113.24145508 492.46435547 C-114.48318481 492.07981201 -114.48318481 492.07981201 -115.75 491.6875 C-116.62615967 491.41824707 -117.50231934 491.14899414 -118.4050293 490.87158203 C-145.1667297 482.36408427 -170.42259096 469.67190214 -193 453 C-193.64791504 452.52175781 -194.29583008 452.04351563 -194.96337891 451.55078125 C-203.83218356 444.93220114 -212.03721219 437.67592665 -220 430 C-220.55606934 429.46584473 -221.11213867 428.93168945 -221.68505859 428.38134766 C-228.99682947 421.32134508 -235.80996569 414.08383851 -242 406 C-242.41958984 405.45682129 -242.83917969 404.91364258 -243.27148438 404.35400391 C-250.95116718 394.36200784 -257.70550478 383.91292772 -264 373 C-264.63204346 371.91090332 -264.63204346 371.91090332 -265.27685547 370.79980469 C-284.09345595 337.95708537 -295.99123669 298.71472811 -296.203125 260.6796875 C-296.21022995 259.82663528 -296.2173349 258.97358307 -296.22465515 258.09468079 C-296.44624845 223.64484414 -293.25768098 190.23735139 -280 158 C-279.71576172 157.30503418 -279.43152344 156.61006836 -279.13867188 155.89404297 C-271.57343637 137.66313258 -262.5209908 120.04914142 -251 104 C-250.27296875 102.9790625 -249.5459375 101.958125 -248.796875 100.90625 C-234.48266599 81.34006502 -217.4611294 62.47438044 -197.74707031 48.26416016 C-195.89325321 46.92275924 -194.06860991 45.54639198 -192.2421875 44.16796875 C-138.27666034 4.09403353 -66.14721874 -12.38157502 0 0 Z " fill="#D7C378" transform="translate(1868,204)"/>
<path d="M0 0 C0.74894531 0.63679688 1.49789063 1.27359375 2.26953125 1.9296875 C15.76520621 13.74702468 28.43558025 26.48551588 39 41 C39.85649066 42.14994831 40.71326433 43.29968589 41.5703125 44.44921875 C81.30632765 98.332404 96.0739411 166.13221793 86.90869141 232.0534668 C84.94811813 244.65538546 81.78761346 256.83510103 78 269 C77.73880371 269.86560547 77.47760742 270.73121094 77.20849609 271.62304688 C68.64317599 299.67102756 54.15652867 326.93836236 35.30761719 349.43212891 C34.03107455 350.96274071 32.78460648 352.5182773 31.5390625 354.07421875 C19.92290191 368.44103907 6.6072378 381.93625415 -8.35693359 392.80566406 C-10.00854401 394.0062106 -11.63929285 395.2315774 -13.26953125 396.4609375 C-38.54183914 415.2741896 -69.78752632 432.00304969 -101 438 C-101.99 437.67 -102.98 437.34 -104 437 C-103.18660156 436.57332031 -102.37320312 436.14664062 -101.53515625 435.70703125 C-86.10439228 427.28867296 -72.44693657 416.37885487 -60 404 C-59.49662109 403.50064941 -58.99324219 403.00129883 -58.47460938 402.48681641 C-45.50992119 389.45139661 -35.42852578 374.28541393 -27 358 C-26.39671875 356.83597656 -25.7934375 355.67195313 -25.171875 354.47265625 C-21.44747021 346.88124559 -18.4549486 339.09132115 -15.625 331.125 C-15.10570923 329.68048462 -15.10570923 329.68048462 -14.57592773 328.20678711 C-12.5775173 322.41485189 -11.43943371 317.11440622 -11 311 C-11.78761719 311.83402344 -12.57523438 312.66804688 -13.38671875 313.52734375 C-28.36574681 329.12003776 -47.61559395 342.11694665 -69 347 C-69.99 346.67 -70.98 346.34 -72 346 C-71.46632813 345.50113281 -70.93265625 345.00226563 -70.3828125 344.48828125 C-44.5048995 319.55056924 -30.56225482 284.65284655 -29.64648438 248.96069336 C-29.35490864 213.02067033 -43.4099325 179.15629292 -68.44433594 153.52099609 C-74.81742095 147.18071694 -81.79290079 141.80221351 -89.0090332 136.46899414 C-121.25941903 112.60041112 -147.63870429 81.38265261 -158 42 C-158.48146484 40.1746875 -158.48146484 40.1746875 -158.97265625 38.3125 C-163.38956655 18.59048191 -162.92290006 -4.88677593 -156 -24 C-165.2055503 -17.19000207 -173.74951353 -9.93816522 -182 -2 C-182.49274414 -1.52916992 -182.98548828 -1.05833984 -183.49316406 -0.57324219 C-190.21537268 5.87772735 -196.30961375 12.62572394 -202 20 C-202.41185547 20.53012695 -202.82371094 21.06025391 -203.24804688 21.60644531 C-237.46653236 65.93610734 -256.54843836 119.4179116 -256.3125 175.4375 C-256.31034485 176.36030762 -256.3081897 177.28311523 -256.30596924 178.23388672 C-256.18479794 210.64896124 -250.51178777 240.48605884 -238.84448242 270.77709961 C-238.18877809 272.5030863 -237.58386456 274.24840633 -237 276 C-247.38910116 272.87111866 -255.81291027 265.91354243 -264 259 C-264.81210937 258.33484375 -265.62421875 257.6696875 -266.4609375 256.984375 C-284.27712404 241.80970508 -299.49339562 217.59341377 -302 194 C-302.66 194 -303.32 194 -304 194 C-304.17668213 194.53584717 -304.35336426 195.07169434 -304.53540039 195.6237793 C-305.88134264 199.68614945 -307.25307416 203.73611134 -308.68359375 207.76953125 C-314.63453967 224.75571013 -319.14002541 242.24353161 -319.16796875 260.34765625 C-319.17129715 261.12201523 -319.17462555 261.89637421 -319.17805481 262.69419861 C-319.18308626 264.32534193 -319.18546431 265.95649541 -319.18530273 267.58764648 C-319.18747285 270.03191993 -319.20562392 272.47572894 -319.22460938 274.91992188 C-319.40727601 325.25175308 -297.64628906 371.53684243 -262.9375 407.3125 C-250.80431804 419.04705586 -236.74035616 428.84690923 -222 437 C-225.02106403 437.95364417 -226.88792281 438.01812529 -229.921875 437.13671875 C-230.68749756 436.9147583 -231.45312012 436.69279785 -232.24194336 436.46411133 C-233.4834314 436.07968872 -233.4834314 436.07968872 -234.75 435.6875 C-235.62470947 435.41897217 -236.49941895 435.15044434 -237.40063477 434.8737793 C-267.96381787 425.16465163 -297.55985942 409.88900905 -322 389 C-322.95003906 388.23171875 -323.90007812 387.4634375 -324.87890625 386.671875 C-338.15573108 375.86116033 -350.68149817 363.68741567 -361 350 C-361.41378906 349.46262207 -361.82757813 348.92524414 -362.25390625 348.37158203 C-385.01449153 318.76789075 -399.76256111 286.07477038 -409 250 C-409.18288574 249.29601074 -409.36577148 248.59202148 -409.55419922 247.86669922 C-414.10828472 230.16263308 -415.23247074 212.0891875 -415.25 193.875 C-415.25151062 192.77199051 -415.25151062 192.77199051 -415.25305176 191.646698 C-415.23397787 170.83624929 -413.19466458 150.18845416 -408 130 C-407.70101807 128.83307617 -407.70101807 128.83307617 -407.39599609 127.64257812 C-398.4591239 93.71135898 -381.90406061 62.27803822 -360 35 C-359.2059375 33.9996875 -358.411875 32.999375 -357.59375 31.96875 C-345.86928744 17.63885132 -332.66581295 4.16581665 -317.68603516 -6.75830078 C-315.94806168 -8.03825055 -314.24494373 -9.35623438 -312.54296875 -10.68359375 C-302.3232171 -18.55365568 -291.32456503 -24.86119983 -280 -31 C-279.30293945 -31.38285156 -278.60587891 -31.76570313 -277.88769531 -32.16015625 C-197.85862347 -75.77579923 -93.44491145 -66.59981213 0 0 Z " fill="#D7C378" transform="translate(816,260)"/>
<path d="M0 0 C13.03458311 9.98355189 22.08993666 23.86748521 25.1953125 40.03515625 C25.38739 42.44030059 25.3562418 44.62121682 25.1953125 47.03515625 C28.8253125 47.03515625 32.4553125 47.03515625 36.1953125 47.03515625 C36.535625 44.46734375 36.535625 44.46734375 36.8828125 41.84765625 C38.81264118 30.46970799 43.04435991 21.05157473 50.1953125 12.03515625 C50.70578125 11.349375 51.21625 10.66359375 51.7421875 9.95703125 C60.94666143 -1.61691122 75.70485133 -9.64171509 90.1953125 -11.96484375 C109.8853652 -13.58354701 128.62796842 -10.09023051 144.13061523 2.8137207 C155.7481896 13.22667741 164.17490165 27.7937558 166.0078125 43.41015625 C166.100625 45.20453125 166.100625 45.20453125 166.1953125 47.03515625 C169.8253125 47.03515625 173.4553125 47.03515625 177.1953125 47.03515625 C177.1128125 46.14828125 177.0303125 45.26140625 176.9453125 44.34765625 C177.00269863 30.14458999 185.83766547 16.0971423 195.1953125 6.03515625 C207.63007222 -5.92300989 223.71148971 -12.57255289 240.8828125 -12.46484375 C241.93428467 -12.45984863 242.98575684 -12.45485352 244.0690918 -12.44970703 C252.93236483 -12.25242795 260.09003198 -10.70880625 268.1953125 -6.96484375 C269.16210938 -6.54203125 270.12890625 -6.11921875 271.125 -5.68359375 C287.47326936 2.28213523 298.24615469 16.9628521 304.16796875 33.80078125 C309.09104737 50.56214661 306.5913159 68.71557998 298.72143555 84.12719727 C290.27850676 99.46185568 276.73970329 109.5492326 260.1953125 115.03515625 C258.9990625 115.44765625 257.8028125 115.86015625 256.5703125 116.28515625 C250.00873184 117.83706537 242.88878183 117.18137281 236.1953125 117.03515625 C236.1128125 118.27265625 236.0303125 119.51015625 235.9453125 120.78515625 C233.97441969 138.01021947 224.66334881 151.65793908 212.05859375 162.94921875 C207.20319263 166.79020544 201.86656818 169.59177664 196.1953125 172.03515625 C195.32132813 172.43089844 194.44734375 172.82664062 193.546875 173.234375 C180.41974092 178.24943292 161.58352596 178.73380002 148.609375 173.22265625 C147.81273437 172.83078125 147.01609375 172.43890625 146.1953125 172.03515625 C145.35742188 171.68453125 144.51953125 171.33390625 143.65625 170.97265625 C127.66359074 163.84280196 117.13273719 150.65268005 110.1953125 135.03515625 C107.9135931 128.86690815 107.06615616 123.62212937 107.1953125 117.03515625 C106.17953125 117.06996094 105.16375 117.10476563 104.1171875 117.140625 C85.52313159 117.59220141 70.0503793 112.19109593 55.95703125 99.84765625 C51.24491187 95.04889253 47.68274848 89.7831051 44.1953125 84.03515625 C43.76605469 83.33777344 43.33679688 82.64039063 42.89453125 81.921875 C38.99713907 74.89453079 36.1953125 66.04272742 36.1953125 58.03515625 C31.2453125 58.53015625 31.2453125 58.53015625 26.1953125 59.03515625 C25.98777344 60.11152344 25.78023437 61.18789063 25.56640625 62.296875 C21.85746796 80.34136828 13.63680098 95.64198434 -1.8984375 106.24609375 C-8.59061345 110.3657397 -14.93078472 114.02329577 -22.8046875 115.03515625 C-22.8046875 111.07515625 -22.8046875 107.11515625 -22.8046875 103.03515625 C-21.0309375 102.37515625 -19.2571875 101.71515625 -17.4296875 101.03515625 C-4.24273541 95.48112231 4.45949263 85.87161659 10.0703125 72.78515625 C10.79825106 70.87584939 11.50928569 68.95991973 12.1953125 67.03515625 C12.6284375 65.85953125 13.0615625 64.68390625 13.5078125 63.47265625 C14.47921987 58.61561941 14.40556081 53.96898318 14.1953125 49.03515625 C14.17726563 48.29265625 14.15921875 47.55015625 14.140625 46.78515625 C13.30575308 33.4272056 6.03331383 21.40368002 -3.4296875 12.28515625 C-16.98198088 1.14812307 -32.81501176 -1.51524472 -49.8046875 0.03515625 C-62.22157131 2.16496751 -72.96006001 9.92435366 -80.953125 19.4140625 C-89.7425373 31.8564584 -93.4841598 44.87516552 -91.8046875 60.03515625 C-89.44885664 72.92381168 -83.37426574 85.9205687 -72.8046875 94.03515625 C-59.67251718 102.63512633 -48.30302177 105.47752388 -32.8046875 106.03515625 C-32.8046875 109.66515625 -32.8046875 113.29515625 -32.8046875 117.03515625 C-53.00219424 117.67446772 -69.63672735 113.1683184 -84.8046875 99.03515625 C-96.54859173 87.43189758 -103.73494224 71.69081168 -104.04663086 55.12426758 C-104.12054561 35.38454818 -97.67299544 19.52402932 -84.01171875 5.1484375 C-60.87856921 -16.80092614 -25.70390208 -18.00705118 0 0 Z " fill="#05A754" transform="translate(551.8046875,929.96484375)"/>
<path d="M0 0 C13.03458311 9.98355189 22.08993666 23.86748521 25.1953125 40.03515625 C25.38739 42.44030059 25.3562418 44.62121682 25.1953125 47.03515625 C28.8253125 47.03515625 32.4553125 47.03515625 36.1953125 47.03515625 C36.5253125 46.04515625 36.8553125 45.05515625 37.1953125 44.03515625 C37.1953125 45.35515625 37.1953125 46.67515625 37.1953125 48.03515625 C39.18098958 48.00260417 41.16666667 47.97005208 43.15234375 47.9375 C45.1953125 48.03515625 45.1953125 48.03515625 48.1953125 49.03515625 C48.0921875 47.81828125 47.9890625 46.60140625 47.8828125 45.34765625 C47.94047922 33.10308875 55.20942813 22.4753772 63.25390625 13.8203125 C75.58778895 2.02957326 88.9525137 -1.63160233 105.4296875 -1.2734375 C119.51740639 -0.60139865 132.578729 6.30818799 142.16015625 16.515625 C150.08320606 26.32439108 154.79589821 36.42285629 154.1953125 49.03515625 C153.38449219 49.38707031 152.57367187 49.73898437 151.73828125 50.1015625 C132.63915308 58.61723897 119.36783487 69.47935767 110.8203125 89.09765625 C108.78022451 94.57700761 107.94971057 100.25805521 107.1953125 106.03515625 C90.18311072 106.88223684 77.10825293 102.907939 63.9453125 91.78515625 C56.38471551 84.69783607 48.55709742 72.81353207 48.0625 62.1796875 C48.10632813 61.47199219 48.15015625 60.76429688 48.1953125 60.03515625 C47.56882812 59.97457031 46.94234375 59.91398438 46.296875 59.8515625 C45.07097656 59.72587891 45.07097656 59.72587891 43.8203125 59.59765625 C42.60214844 59.47583984 42.60214844 59.47583984 41.359375 59.3515625 C39.1953125 59.03515625 39.1953125 59.03515625 37.1953125 58.03515625 C36.8653125 59.35515625 36.5353125 60.67515625 36.1953125 62.03515625 C36.1953125 60.71515625 36.1953125 59.39515625 36.1953125 58.03515625 C31.2453125 58.53015625 31.2453125 58.53015625 26.1953125 59.03515625 C25.98777344 60.11152344 25.78023437 61.18789063 25.56640625 62.296875 C21.85746796 80.34136828 13.63680098 95.64198434 -1.8984375 106.24609375 C-8.59061345 110.3657397 -14.93078472 114.02329577 -22.8046875 115.03515625 C-22.8046875 111.07515625 -22.8046875 107.11515625 -22.8046875 103.03515625 C-21.0309375 102.37515625 -19.2571875 101.71515625 -17.4296875 101.03515625 C-4.24273541 95.48112231 4.45949263 85.87161659 10.0703125 72.78515625 C10.79825106 70.87584939 11.50928569 68.95991973 12.1953125 67.03515625 C12.6284375 65.85953125 13.0615625 64.68390625 13.5078125 63.47265625 C14.47921987 58.61561941 14.40556081 53.96898318 14.1953125 49.03515625 C14.17726563 48.29265625 14.15921875 47.55015625 14.140625 46.78515625 C13.30575308 33.4272056 6.03331383 21.40368002 -3.4296875 12.28515625 C-16.98198088 1.14812307 -32.81501176 -1.51524472 -49.8046875 0.03515625 C-62.22157131 2.16496751 -72.96006001 9.92435366 -80.953125 19.4140625 C-89.7425373 31.8564584 -93.4841598 44.87516552 -91.8046875 60.03515625 C-89.44885664 72.92381168 -83.37426574 85.9205687 -72.8046875 94.03515625 C-59.67251718 102.63512633 -48.30302177 105.47752388 -32.8046875 106.03515625 C-32.8046875 109.66515625 -32.8046875 113.29515625 -32.8046875 117.03515625 C-53.00219424 117.67446772 -69.63672735 113.1683184 -84.8046875 99.03515625 C-96.54859173 87.43189758 -103.73494224 71.69081168 -104.04663086 55.12426758 C-104.12054561 35.38454818 -97.67299544 19.52402932 -84.01171875 5.1484375 C-60.87856921 -16.80092614 -25.70390208 -18.00705118 0 0 Z " fill="#FDFEFD" transform="translate(551.8046875,929.96484375)"/>
<path d="M0 0 C0.73347656 0.27714844 1.46695313 0.55429687 2.22265625 0.83984375 C14.57269019 6.1677908 23.92879432 18.30037297 29 30.39453125 C33.1926942 41.31846496 33.64476022 53.79496573 30 65 C29.74347656 65.79664063 29.48695313 66.59328125 29.22265625 67.4140625 C23.88538292 82.2118246 13.61879467 92.28070496 -0.22753906 99.18554688 C-8.71861789 103.08723268 -17.76918444 103.74418978 -27 103 C-28.68508173 101.31491827 -28.45053434 98.99638024 -28.75 96.6875 C-30.54710485 85.62940226 -35.17784893 76.78007783 -42 68 C-42.47179687 67.36320313 -42.94359375 66.72640625 -43.4296875 66.0703125 C-51.23615435 56.14683769 -63.47239615 50.47245832 -75 46 C-75.96529306 33.20986697 -69.24933977 21.90487689 -61.3125 12.3125 C-45.55953017 -4.67070176 -20.99516446 -8.54696766 0 0 Z " fill="#FEFEFE" transform="translate(815,933)"/>
<path d="M0 0 C3.63 0 7.26 0 11 0 C11.15855469 0.87140625 11.31710937 1.7428125 11.48046875 2.640625 C15.04541994 20.83960233 22.68887062 36.20410426 38.078125 47.19921875 C44.76052672 51.48260659 51.40795526 54.68739319 59 57 C58.63335555 72.06575394 51.08946896 84.70940803 40.40625 94.9296875 C27.87784881 105.70899372 13.37781405 108.22533339 -2.67919922 107.22314453 C-15.41685294 105.99842167 -26.54800084 99.36699911 -35.22265625 90.16015625 C-42.97714049 80.7354754 -48.23565418 69.25401755 -48 57 C-47.26136719 56.72027344 -46.52273438 56.44054688 -45.76171875 56.15234375 C-27.19015574 48.81339064 -13.26860833 37.4637366 -5.125 19 C-2.74054077 12.82845847 -1.28534922 6.47899605 0 0 Z " fill="#FDFEFD" transform="translate(718,988)"/>
<path d="M0 0 C0.80695312 0.39058594 1.61390625 0.78117188 2.4453125 1.18359375 C13.02964018 6.89654126 19.95004346 15.43797411 23.578125 26.8125 C25.97407049 39.23592105 23.51103549 51.03955799 16.796875 61.609375 C10.13455681 70.47315486 1.61879094 75.39789794 -9 78 C-23.78961268 79.16085645 -34.2933771 76.75734207 -45.90625 67.4765625 C-51.84789856 62.13429077 -57.43261204 53.17396365 -58.17700195 45.07397461 C-58.57016045 31.14112678 -57.71464 20.75086826 -48 10 C-35.81815945 -2.54959422 -16.44676477 -8.16131912 0 0 Z " fill="#050505" transform="translate(847,770)"/>
<path d="M0 0 C0.81855469 0.4021875 1.63710937 0.804375 2.48046875 1.21875 C11.53821537 6.15186465 18.2322977 13.35692035 22 23 C22.35835937 23.91652344 22.71671875 24.83304688 23.0859375 25.77734375 C26.11437207 36.45451693 24.23684174 47.85826387 19.3125 57.5625 C12.89526966 68.70416611 3.38344956 74.60304376 -9 78 C-20.97070864 79.15453535 -31.7439242 78.21026554 -41.8125 70.98046875 C-49.20011099 64.7031981 -56.98416788 55.80568527 -58.28588867 45.80322266 C-58.40198685 43.40318867 -58.40953984 41.02743742 -58.375 38.625 C-58.38660156 37.82578125 -58.39820313 37.0265625 -58.41015625 36.203125 C-58.35389134 24.61255411 -53.48861826 15.61221957 -45.6875 7.25 C-34.10944433 -3.74150219 -14.50448482 -7.21126929 0 0 Z " fill="#040404" transform="translate(2018,770)"/>
<path d="M0 0 C1.05147217 0.00499512 2.10294434 0.00999023 3.1862793 0.01513672 C12.04955233 0.2124158 19.20721948 1.7560375 27.3125 5.5 C28.27929688 5.9228125 29.24609375 6.345625 30.2421875 6.78125 C46.59045686 14.74697898 57.36334219 29.42769585 63.28515625 46.265625 C68.20823487 63.02699036 65.7085034 81.18042373 57.83862305 96.59204102 C48.66871824 113.2470859 33.66823425 123.25887979 15.63671875 128.5859375 C10.89863931 129.73741192 6.29387789 129.80401105 1.4375 129.75 C0.55126953 129.74250732 -0.33496094 129.73501465 -1.24804688 129.72729492 C-19.58683095 129.42491445 -33.50810607 122.30315024 -46.875 109.875 C-55.95341847 100.45018718 -63.83002168 86.56855108 -63.9375 73.1875 C-63.855 72.300625 -63.7725 71.41375 -63.6875 70.5 C-50.91697032 70.5 -38.89637045 78.15412721 -30.0234375 86.8671875 C-22.92800201 94.86438402 -16.19181335 105.43627402 -16.6875 116.5 C0.44031704 118.94683101 16.52339347 118.41000247 31.3125 108.5 C42.1832949 100.32299445 50.53257493 88.74950144 52.89453125 75.1484375 C54.56366503 60.57861556 52.91893165 46.73249169 44.3125 34.5 C35.07682119 22.89347644 24.40734034 14.69154719 9.3125 12.5 C-8.14016823 11.45215279 -21.97257647 14.55490797 -35.875 25.6875 C-46.29105697 35.21977032 -50.81496559 47.9241255 -52.6875 61.5 C-56.3175 61.17 -59.9475 60.84 -63.6875 60.5 C-64.84169091 45.78406595 -57.06470168 31.81135181 -47.8671875 20.84375 C-35.39533649 7.43315752 -18.22633134 -0.11432681 0 0 Z " fill="#EF2C31" transform="translate(792.6875,917.5)"/>
<path d="M0 0 C14.54944175 11.1438245 22.34900184 25.80360295 25.8828125 43.47265625 C27.58927039 62.92627623 22.89969794 79.25776897 10.9453125 94.84765625 C2.55422055 104.61596633 -9.80644979 113.36477711 -22.8046875 115.03515625 C-22.8046875 111.07515625 -22.8046875 107.11515625 -22.8046875 103.03515625 C-21.0309375 102.37515625 -19.2571875 101.71515625 -17.4296875 101.03515625 C-4.24273541 95.48112231 4.45949263 85.87161659 10.0703125 72.78515625 C10.79825106 70.87584939 11.50928569 68.95991973 12.1953125 67.03515625 C12.6284375 65.85953125 13.0615625 64.68390625 13.5078125 63.47265625 C14.47921987 58.61561941 14.40556081 53.96898318 14.1953125 49.03515625 C14.17726563 48.29265625 14.15921875 47.55015625 14.140625 46.78515625 C13.30575308 33.4272056 6.03331383 21.40368002 -3.4296875 12.28515625 C-16.98198088 1.14812307 -32.81501176 -1.51524472 -49.8046875 0.03515625 C-62.22157131 2.16496751 -72.96006001 9.92435366 -80.953125 19.4140625 C-89.7425373 31.8564584 -93.4841598 44.87516552 -91.8046875 60.03515625 C-89.44885664 72.92381168 -83.37426574 85.9205687 -72.8046875 94.03515625 C-59.67251718 102.63512633 -48.30302177 105.47752388 -32.8046875 106.03515625 C-32.8046875 109.66515625 -32.8046875 113.29515625 -32.8046875 117.03515625 C-53.00219424 117.67446772 -69.63672735 113.1683184 -84.8046875 99.03515625 C-96.54859173 87.43189758 -103.73494224 71.69081168 -104.04663086 55.12426758 C-104.12054561 35.38454818 -97.67299544 19.52402932 -84.01171875 5.1484375 C-60.87856921 -16.80092614 -25.70390208 -18.00705118 0 0 Z " fill="#067BD0" transform="translate(551.8046875,929.96484375)"/>
<path d="M0 0 C12.87167827 9.90484301 21.89364848 24.65525347 24.78173828 40.65917969 C25.02031661 42.69186708 25.15648764 44.73636516 25.26220703 46.78027344 C25.87064453 46.74546875 26.47908203 46.71066406 27.10595703 46.67480469 C45.3500016 46.11138566 60.93123422 51.3327326 74.80126953 63.41308594 C86.79450554 74.94943677 93.73315574 89.2155511 95.26220703 105.78027344 C91.30220703 105.12027344 87.34220703 104.46027344 83.26220703 103.78027344 C82.89095703 102.02714844 82.51970703 100.27402344 82.13720703 98.46777344 C78.65214885 84.73728957 70.7318054 73.77904671 58.63720703 66.34277344 C49.90535204 61.17912092 42.49020373 58.80386942 32.44970703 58.21777344 C31.41040039 58.15299805 31.41040039 58.15299805 30.35009766 58.08691406 C28.65432017 57.98165891 26.95828651 57.8805448 25.26220703 57.78027344 C25.18744141 58.55628906 25.11267578 59.33230469 25.03564453 60.13183594 C22.9804256 77.01686994 14.89810638 92.35472123 1.58642578 103.15527344 C-6.28729095 108.66025858 -14.08723314 113.44916174 -23.73779297 114.78027344 C-23.73779297 111.15027344 -23.73779297 107.52027344 -23.73779297 103.78027344 C-22.77099609 103.3071875 -21.80419922 102.83410156 -20.80810547 102.34667969 C-5.09997122 94.46126506 5.67630315 84.5537808 11.76220703 67.53027344 C15.83638559 52.47036342 13.44183728 38.0689272 6.01220703 24.46777344 C-1.24316194 12.84390862 -11.91256765 5.0975795 -24.92529297 0.78027344 C-35.80000452 -1.70445294 -49.49065486 -1.91633153 -59.73779297 2.78027344 C-60.62466797 3.18246094 -61.51154297 3.58464844 -62.42529297 3.99902344 C-76.59185126 11.08230258 -85.98586291 22.14793845 -91.02685547 37.12011719 C-92.06832802 41.01705567 -92.47404831 44.75816744 -92.73779297 48.78027344 C-96.36779297 48.45027344 -99.99779297 48.12027344 -103.73779297 47.78027344 C-105.05731414 32.7377321 -97.34597557 19.42947535 -88.11279297 8.15527344 C-65.09627611 -16.68653779 -27.31002944 -19.16843314 0 0 Z " fill="#050505" transform="translate(692.73779296875,930.2197265625)"/>
<path d="M0 0 C1.42732455 15.25651354 -5.15921813 29.11744344 -14.6875 40.6875 C-20.22093619 46.68915002 -27.26234051 51.34378853 -35 54 C-35.99 54 -36.98 54 -38 54 C-36.82401917 73.41883102 -33.71649637 89.44483676 -18.9296875 103.41015625 C-5.99510714 114.0667842 8.12366641 116.29407949 24.41503906 115.27050781 C34.57335503 114.20747286 43.22819815 109.44388607 51 103 C51.63421875 102.47792969 52.2684375 101.95585938 52.921875 101.41796875 C60.5313499 94.49873383 65.41236253 84.85853429 68 75 C68.30550781 73.84564453 68.30550781 73.84564453 68.6171875 72.66796875 C69.09894207 70.78384641 69.55266084 68.89258874 70 67 C73.3 67.33 76.6 67.66 80 68 C81.04802047 81.36226095 74.78835532 94.05317787 66.453125 104.171875 C53.76066258 118.90431928 37.73100044 126.4413624 18.31640625 128.25 C0.87399168 128.69652581 -15.05203485 122.49481223 -28 111 C-41.97147801 97.68445993 -48.32765306 82.00864915 -49.11279297 62.94946289 C-49.38601982 45.85436511 -43.221352 30.65480342 -31.30078125 18.2734375 C-30.54152344 17.52320313 -29.78226563 16.77296875 -29 16 C-28.31292969 15.29101562 -27.62585938 14.58203125 -26.91796875 13.8515625 C-20.33929875 7.48038302 -9.40755307 0 0 0 Z " fill="#FEB219" transform="translate(567,979)"/>
<path d="M0 0 C5.62286158 3.79166145 11.21453338 9.28043019 12.9375 16 C14.16166318 22.56382503 14.06461758 29.05385327 14.03515625 35.71484375 C14.0337413 36.92572159 14.03232635 38.13659943 14.03086853 39.38417053 C14.02529026 43.23530594 14.0127417 47.08638229 14 50.9375 C13.99498219 53.5553377 13.99041978 56.17317631 13.98632812 58.79101562 C13.97532793 65.19403302 13.95807822 71.59700651 13.9375 78 C9.6475 78 5.3575 78 0.9375 78 C0.855 76.35 0.7725 74.7 0.6875 73 C0.06393734 66.27071958 -1.62766084 61.43483916 -6.4375 56.625 C-13.3342288 52.35559645 -18.43321765 52.71910686 -27.0625 52 C-27.0625 60.58 -27.0625 69.16 -27.0625 78 C-31.3525 78 -35.6425 78 -40.0625 78 C-40.15321928 70.3324763 -40.22645571 62.66515537 -40.26974869 54.99722385 C-40.29053754 51.43585171 -40.31869285 47.87486886 -40.36425781 44.3137207 C-40.41642533 40.21041331 -40.43551694 36.10750861 -40.453125 32.00390625 C-40.48409271 30.10494347 -40.48409271 30.10494347 -40.51568604 28.1676178 C-40.51795922 19.13455387 -38.84353883 13.25335351 -33.9375 5.75 C-25.11396042 -2.68990742 -11.27036793 -5.67378112 0 0 Z " fill="#070707" transform="translate(388.0625,769)"/>
<path d="M0 0 C2.04296875 1.40625 2.04296875 1.40625 3.9375 3 C4.59363281 3.5465625 5.24976563 4.093125 5.92578125 4.65625 C12.88902558 11.46091112 14.02921377 21.04528325 14.27807617 30.43286133 C14.2776112 32.64930806 14.26127049 34.8657985 14.23046875 37.08203125 C14.22622391 38.26222336 14.22197906 39.44241547 14.21760559 40.65837097 C14.20099872 44.3766599 14.16338092 48.09437874 14.125 51.8125 C14.1099299 54.3548098 14.0962456 56.89712822 14.08398438 59.43945312 C14.05115431 65.6265171 13.99949873 71.81316237 13.9375 78 C9.6475 78 5.3575 78 0.9375 78 C0.855 76.35 0.7725 74.7 0.6875 73 C0.06393734 66.27071958 -1.62766084 61.43483916 -6.4375 56.625 C-13.3342288 52.35559645 -18.43321765 52.71910686 -27.0625 52 C-27.0625 60.58 -27.0625 69.16 -27.0625 78 C-31.3525 78 -35.6425 78 -40.0625 78 C-40.13054704 70.46283087 -40.18547155 62.92577786 -40.21793652 55.38837528 C-40.23352599 51.88762469 -40.25463941 48.38709698 -40.28881836 44.88647461 C-40.32795205 40.85268129 -40.34226462 36.81911844 -40.35546875 32.78515625 C-40.37095261 31.54105484 -40.38643646 30.29695343 -40.40238953 29.01515198 C-40.40416782 19.75028417 -39.54706336 11.51810263 -32.89453125 4.57421875 C-24.11483164 -2.9699581 -10.61380978 -5.34325356 0 0 Z " fill="#070707" transform="translate(1559.0625,769)"/>
<path d="M0 0 C38.84375 0 38.84375 0 48.125 9 C53.61031196 15.76794709 53.65663808 22.578356 53 31 C51.48721116 38.01730622 45.93680686 43.12196465 41 48 C41.86625 48.515625 42.7325 49.03125 43.625 49.5625 C49.30822711 53.37818913 54.5626571 59.15726501 56 66 C56.23040879 70.36752654 56.13546854 74.61985063 56 79 C51.71 79 47.42 79 43 79 C42.9175 77.14375 42.835 75.2875 42.75 73.375 C42.20847004 66.98945922 40.72459547 63.47690498 35.9375 59.125 C31.30635227 57.35136896 26.8898771 57.36812161 22 58 C17.88600271 59.83660593 16.43839975 61.24413837 14.1875 65.125 C12.52426519 69.61573397 12.32503638 74.25446885 12 79 C8.04 79 4.08 79 0 79 C0 52.93 0 26.86 0 0 Z " fill="#020202" transform="translate(442,768)"/>
<path d="M0 0 C38.69552897 0 38.69552897 0 47.6328125 8.48828125 C53.16449003 14.60473612 53.36234309 20.79901166 53.2734375 28.73828125 C52.72749433 35.25060338 50.20032948 39.16622714 45.375 43.4375 C43.59965057 44.86010533 42.03627518 45.98186241 40 47 C40.60328125 47.44730469 41.2065625 47.89460937 41.828125 48.35546875 C48.16983466 53.15266525 54.09685251 57.89400141 56 66 C56.24010959 70.36795097 56.13549966 74.61884418 56 79 C51.71 79 47.42 79 43 79 C42.9175 77.14375 42.835 75.2875 42.75 73.375 C42.20847004 66.98945922 40.72459547 63.47690498 35.9375 59.125 C31.30635227 57.35136896 26.8898771 57.36812161 22 58 C17.88600271 59.83660593 16.43839975 61.24413837 14.1875 65.125 C12.52426519 69.61573397 12.32503638 74.25446885 12 79 C8.04 79 4.08 79 0 79 C0 52.93 0 26.86 0 0 Z " fill="#020202" transform="translate(1613,768)"/>
<path d="M0 0 C-3.17349423 1.78979059 -6.05431607 2.46991328 -9.625 3.125 C-29.81249719 7.65134466 -47.88908951 19.23090533 -63 33 C-64.10601563 33.96486328 -64.10601563 33.96486328 -65.234375 34.94921875 C-76.27950646 45.13282995 -85.8442858 60.27636016 -86.53442383 75.45605469 C-86.65258207 84.84706635 -85.30778528 92.68016833 -78.875 99.8125 C-74.78034675 103.56224726 -70.02606453 105.75216209 -65 108 C-63.66350508 108.66030564 -62.32902856 109.32479239 -61 110 C-68.74921557 113.87460778 -83.54613718 111.28452112 -91.48828125 108.9140625 C-101.11438862 105.41093789 -108.3581316 100.37131922 -113 91 C-117.26280885 78.82054615 -114.98530723 67.59552949 -109.6796875 56.15234375 C-97.72159933 32.92228723 -76.3280373 17.44090605 -53 7 C-51.90042969 6.50628906 -50.80085938 6.01257813 -49.66796875 5.50390625 C-34.76637763 -0.6882469 -15.94812708 -3.96306164 0 0 Z " fill="#F02B30" transform="translate(1811,919)"/>
<path d="M0 0 C9.57940547 8.45241659 15.01201562 21.06117209 16.26171875 33.6328125 C16.61497199 42.18397708 14.62995244 50.08391249 9.25 56.875 C0.94242409 65.51240523 -10.23163205 69.09667748 -22.03222656 69.37329102 C-49.33907014 69.39220157 -75.10637736 59.64284684 -96 42 C-97.50626953 40.73736328 -97.50626953 40.73736328 -99.04296875 39.44921875 C-109.5102792 30.40964481 -119.35649611 19.23713778 -124 6 C-123.67 5.01 -123.34 4.02 -123 3 C-122.42894531 3.67804687 -121.85789062 4.35609375 -121.26953125 5.0546875 C-104.19763693 24.65072518 -76.07172267 41.98032242 -49.65625 43.90234375 C-48.34140625 43.95068359 -48.34140625 43.95068359 -47 44 C-46.04867188 44.04664795 -46.04867188 44.04664795 -45.078125 44.09423828 C-31.83439308 44.68675237 -18.69869429 43.8178736 -8 35 C-2.78219259 30.03236144 1.05522385 24.36496311 1.328125 16.9921875 C1.31766707 15.61958445 1.29149763 14.24701547 1.25 12.875 C1.24226563 11.84052734 1.24226563 11.84052734 1.234375 10.78515625 C1.17771036 7.08070522 0.86912004 3.60264273 0 0 Z " fill="#04A753" transform="translate(1936,1005)"/>
<path d="M0 0 C1.26218419 3.78655257 0.48818038 5.08510851 -0.8125 8.8125 C-9.77016991 36.95632103 -5.8877077 69.23215745 7.5 95.3125 C13.6908812 105.96081567 21.74411515 114.0212134 33.8203125 117.53125 C42.1970156 119.33269153 50.04619618 117.26977627 57.375 113.0625 C59.77865601 111.17391313 61.92141589 109.23847519 64 107 C64.66 107.33 65.32 107.66 66 108 C61.36093435 117.4803794 56.67285426 125.57187092 49 133 C48.48824219 133.52078125 47.97648437 134.0415625 47.44921875 134.578125 C41.57219207 140.07438657 34.38537107 142.23065281 26.5 142.5 C16.13078222 142.12227291 9.18319099 138.27354559 2 131 C1.41605469 130.44957031 0.83210938 129.89914062 0.23046875 129.33203125 C-16.50387183 112.21994032 -20.51213188 85.53615772 -20.35107422 62.73828125 C-19.87473612 39.8740525 -14.83468312 18.00891663 0 0 Z " fill="#0379D0" transform="translate(1785,964)"/>
<path d="M0 0 C37.4 0 37.4 0 46 7 C50.82421084 12.04859274 54.05846674 17.16207804 54.4375 24.25 C54.1079595 31.69001043 51.89279978 38.65877747 46.5625 44 C40.85331706 48.66329901 34.06669648 51.79239969 27.45141602 54.96875 C21.32042808 57.98269262 17.1372157 60.72556861 14 67 C13.77141886 69.0374763 13.58975722 71.08040303 13.4375 73.125 C13.293125 75.06375 13.14875 77.0025 13 79 C8.71 79 4.42 79 0 79 C0 52.93 0 26.86 0 0 Z " fill="#050505" transform="translate(259,768)"/>
<path d="M0 0 C37.4 0 37.4 0 46 7 C52.32820951 13.53973741 53.44787843 18.68736988 53.43383789 27.56567383 C53.25303942 34.57780361 51.51482276 38.48992941 46.55541992 43.44262695 C40.89110675 48.55201129 34.38681407 51.5665285 27.5625 54.85546875 C21.41411514 57.92966118 17.1564575 60.687085 14 67 C13.77141886 69.0374763 13.58975722 71.08040303 13.4375 73.125 C13.293125 75.06375 13.14875 77.0025 13 79 C8.71 79 4.42 79 0 79 C0 52.93 0 26.86 0 0 Z " fill="#050505" transform="translate(1430,768)"/>
<path d="M0 0 C0.99 0 1.98 0 3 0 C3 298.65 3 597.3 3 905 C2.01 905 1.02 905 0 905 C0 606.35 0 307.7 0 0 Z " fill="#000000" transform="translate(1237,201)"/>
<path d="M0 0 C6.69695134 3.97144789 11.93418125 8.95716314 14.84375 16.28125 C16.61478316 23.44971756 16.81033668 32.24247956 13.66015625 39.0703125 C9.02469359 46.53075408 3.11127047 52.53327952 -5.5 54.9375 C-13.83984394 55.92592595 -21.54015588 56.01585516 -28.5 50.9375 C-29.551875 50.195 -30.60375 49.4525 -31.6875 48.6875 C-38.18930721 42.33017739 -41.43816844 35.19368884 -41.875 26.0625 C-41.76006641 20.66062126 -40.09477622 16.61350298 -37.5 11.9375 C-36.9225 10.885625 -36.345 9.83375 -35.75 8.75 C-27.11164197 -2.04794753 -12.7979665 -5.97631615 0 0 Z " fill="#FCFCFC" transform="translate(2013.5,781.0625)"/>
<path d="M0 0 C7.30846155 4.32467642 12.67826811 10.72230434 15.375 18.8125 C16.27440885 29.41267578 15.46941502 37.26434373 8.80078125 45.8359375 C3.708542 51.46232772 -1.69307464 54.40195451 -9.25390625 55.19140625 C-16.63135207 55.41851729 -22.56023491 55.22323825 -28.625 50.8125 C-29.676875 50.090625 -30.72875 49.36875 -31.8125 48.625 C-38.50654111 41.93095889 -41.14881325 34.21092268 -41.625 24.8125 C-40.91052626 16.75619264 -37.51826439 9.41939093 -31.625 3.8125 C-22.38229058 -2.91604776 -10.65758293 -5.12785665 0 0 Z " fill="#FDFDFD" transform="translate(842.625,781.1875)"/>
<path d="M0 0 C1.05622559 -0.00193359 1.05622559 -0.00193359 2.13378906 -0.00390625 C7.20996861 0.09897348 11.0119733 0.97789662 15.390625 3.5 C17.4537799 4.6668716 17.4537799 4.6668716 21.1875 4.375 C22.26 3.715 23.3325 3.055 24.4375 2.375 C36.79411399 -3.96230754 52.80247008 1.82191765 65.1875 5.375 C59.1670881 17.91151071 50.21291684 26.35172814 37.19921875 31.57421875 C34.86839399 32.28209886 32.57020359 32.87525692 30.1875 33.375 C29.58035156 33.55417969 28.97320313 33.73335937 28.34765625 33.91796875 C15.72196664 36.58922677 3.06905141 33.62457901 -7.75 26.9375 C-9.45158716 25.77027524 -11.14109181 24.58504428 -12.8125 23.375 C-13.885 22.611875 -14.9575 21.84875 -16.0625 21.0625 C-20.70256267 16.5278933 -25.64622179 10.93342161 -26.8125 4.375 C-25.50925781 4.19324219 -25.50925781 4.19324219 -24.1796875 4.0078125 C-23.02726562 3.84023438 -21.87484375 3.67265625 -20.6875 3.5 C-18.98207031 3.25636719 -18.98207031 3.25636719 -17.2421875 3.0078125 C-13.84839282 2.47548324 -13.84839282 2.47548324 -10.87109375 1.328125 C-7.21653934 0.18928557 -3.79274361 -0.00722084 0 0 Z " fill="#D7C379" transform="translate(1804.8125,631.625)"/>
<path d="M0 0 C5.66420934 4.22433556 9.42357003 9.14453039 10.49609375 16.25 C10.97083248 30.78887372 2.58329595 39.92066909 -6.375 50.3828125 C-10.00838888 54.67462765 -13.45780096 59.11985124 -16.91015625 63.55859375 C-2.06015625 64.05359375 -2.06015625 64.05359375 13.08984375 64.55859375 C13.08984375 68.51859375 13.08984375 72.47859375 13.08984375 76.55859375 C-5.39015625 76.55859375 -23.87015625 76.55859375 -42.91015625 76.55859375 C-38.93130629 71.25346046 -34.9254267 66.05160279 -30.72265625 60.93359375 C-11.44468816 40.74120134 -11.44468816 40.74120134 -2.91015625 16.55859375 C-4.30980756 13.13722389 -5.52867138 11.81587424 -8.59765625 9.74609375 C-12.56793349 8.32278682 -15.74583161 7.81200168 -19.91015625 8.55859375 C-23.32163379 10.26433252 -25.2936312 11.59359802 -27.34765625 14.80859375 C-28.35959696 19.75585943 -27.87321186 23.98916979 -25.22265625 28.30859375 C-24.78953125 29.05109375 -24.35640625 29.79359375 -23.91015625 30.55859375 C-24.90751828 34.10476987 -27.57808514 36.76010842 -29.91015625 39.55859375 C-34.97205389 37.68381684 -37.89332408 33.59225808 -40.22265625 28.93359375 C-41.72824928 21.54250067 -42.17869083 13.97840936 -38.23828125 7.3046875 C-29.15682497 -4.63475649 -13.05630205 -7.66867658 0 0 Z " fill="#050505" transform="translate(2118.91015625,770.44140625)"/>
<path d="M0 0 C4.43119923 3.31304615 8.02798777 7.38945063 10.08984375 12.5625 C11.4016607 22.46419528 9.96178696 29.55903115 4.08984375 37.5625 C0.70146083 41.91012182 -2.80544591 46.15199949 -6.375 50.3515625 C-9.99651409 54.66536603 -13.45217886 59.11652907 -16.91015625 63.5625 C-2.06015625 64.0575 -2.06015625 64.0575 13.08984375 64.5625 C13.08984375 68.5225 13.08984375 72.4825 13.08984375 76.5625 C-5.39015625 76.5625 -23.87015625 76.5625 -42.91015625 76.5625 C-38.93130629 71.25736671 -34.9254267 66.05550904 -30.72265625 60.9375 C-12.88765823 41.97311702 -12.88765823 41.97311702 -2.59765625 19.5625 C-2.9672612 16.01429251 -3.66452928 14.3321066 -5.91015625 11.5625 C-10.40069229 8.53399895 -14.61892685 7.60333292 -19.91015625 8.5625 C-23.04196434 10.18640049 -25.15355369 11.56516026 -27.28515625 14.375 C-28.37680059 18.19575519 -28.82545028 21.79834457 -26.94140625 25.4296875 C-26.55984375 26.03039062 -26.17828125 26.63109375 -25.78515625 27.25 C-23.91015625 30.5625 -23.91015625 30.5625 -24.41015625 32.6875 C-24.90515625 33.30625 -25.40015625 33.925 -25.91015625 34.5625 C-26.61140625 35.47 -27.31265625 36.3775 -28.03515625 37.3125 C-28.96328125 38.42625 -28.96328125 38.42625 -29.91015625 39.5625 C-34.69904913 37.68114923 -36.79811606 34.15112884 -39.66015625 30.0625 C-42.01756861 23.46174538 -42.25059948 15.61908421 -39.34765625 9.125 C-36.17166968 3.82423368 -31.00589235 -0.77775464 -25.1796875 -2.9609375 C-16.50070485 -4.78337448 -7.7335745 -4.52948124 0 0 Z " fill="#050505" transform="translate(947.91015625,770.4375)"/>
<path d="M0 0 C2.0631549 1.1668716 2.0631549 1.1668716 5.796875 0.875 C6.869375 0.215 7.941875 -0.445 9.046875 -1.125 C16.77356129 -5.1833156 27.59473737 -3.98553428 35.734375 -1.75 C37.4225079 -1.21030903 39.11003372 -0.66871456 40.796875 -0.125 C43.78727008 0.59636723 46.78794614 1.23375287 49.796875 1.875 C44.19406557 14.42529312 34.75472393 22.92447165 21.98828125 28.09765625 C9.12900428 32.65914665 -4.66184885 32.3339565 -17.203125 26.875 C-25.1025232 22.55439007 -32.15598232 17.73438907 -37.453125 10.375 C-38.13890625 9.4365625 -38.8246875 8.498125 -39.53125 7.53125 C-41.00357157 5.1920475 -41.77102481 3.56927177 -42.203125 0.875 C-41.501875 0.83761719 -40.800625 0.80023437 -40.078125 0.76171875 C-33.60218326 0.35405788 -33.60218326 0.35405788 -27.515625 -1.6875 C-19.22342887 -5.1482926 -7.69597412 -4.43288109 0 0 Z " fill="#D7C379" transform="translate(649.203125,635.125)"/>
<path d="M0 0 C6.11847549 3.64358653 10.72913094 8.05600253 12.73828125 15.03515625 C14.25116114 24.32292322 11.8564935 31.30359863 6.73828125 39.03515625 C4.18986446 42.38751939 1.43083915 45.5477503 -1.359375 48.69921875 C-5.95914445 53.90949458 -10.0644234 59.49959282 -14.26171875 65.03515625 C0.58828125 65.53015625 0.58828125 65.53015625 15.73828125 66.03515625 C15.73828125 69.99515625 15.73828125 73.95515625 15.73828125 78.03515625 C-2.74171875 78.03515625 -21.22171875 78.03515625 -40.26171875 78.03515625 C-36.28286879 72.73002296 -32.2769892 67.52816529 -28.07421875 62.41015625 C-8.79625066 42.21776384 -8.79625066 42.21776384 -0.26171875 18.03515625 C-1.72751824 14.24132228 -2.93151458 13.21930858 -6.51171875 11.22265625 C-10.48135753 9.96560397 -13.13432623 9.50985175 -17.26171875 10.03515625 C-20.96561896 12.06181863 -22.91534886 13.51560141 -25.26171875 17.03515625 C-26.33817901 23.49391782 -24.87570572 27.72711288 -21.26171875 33.03515625 C-23.24171875 35.67515625 -25.22171875 38.31515625 -27.26171875 41.03515625 C-32.40976773 38.46113176 -35.28035945 35.5022798 -37.37890625 30.2265625 C-39.08077493 24.07423191 -39.58938924 17.43762739 -37.234375 11.40234375 C-29.54273932 -1.16847356 -13.62225712 -6.27148882 0 0 Z " fill="#050505" transform="translate(1911.26171875,768.96484375)"/>
<path d="M0 0 C5.52570098 3.32037637 10.36968254 7.49489812 12.28515625 13.84765625 C14.01120315 22.15333494 13.18550689 28.9648312 8.76953125 36.20703125 C5.64403027 40.58514149 2.18681561 44.63624947 -1.35546875 48.67578125 C-5.93065458 53.9184714 -10.05522693 59.50433461 -14.2578125 65.046875 C0.5921875 65.541875 0.5921875 65.541875 15.7421875 66.046875 C15.7421875 70.006875 15.7421875 73.966875 15.7421875 78.046875 C-2.7378125 78.046875 -21.2178125 78.046875 -40.2578125 78.046875 C-36.27896254 72.74174171 -32.27308295 67.53988404 -28.0703125 62.421875 C-8.79234441 42.22948259 -8.79234441 42.22948259 -0.2578125 18.046875 C-1.65746381 14.62550514 -2.87632763 13.30415549 -5.9453125 11.234375 C-9.83898672 9.83852953 -13.20607897 9.18977752 -17.2578125 10.046875 C-20.58675428 11.775364 -23.55563223 13.64251447 -25.2578125 17.046875 C-25.83039143 23.68879061 -24.55529569 27.27627942 -21.2578125 33.046875 C-23.2378125 35.686875 -25.2178125 38.326875 -27.2578125 41.046875 C-32.36882207 38.49137022 -35.11139278 35.39430587 -37.5703125 30.359375 C-39.13664686 22.81249127 -39.14085265 15.87566975 -35.2578125 9.046875 C-27.67138964 -2.44770509 -12.47941053 -5.67732839 0 0 Z " fill="#050505" transform="translate(740.2578125,768.953125)"/>
<path d="M0 0 C4.96405771 4.05686852 8.51062668 8.15278897 9.90234375 14.5546875 C9.90234375 16.2046875 9.90234375 17.8546875 9.90234375 19.5546875 C5.61234375 19.5546875 1.32234375 19.5546875 -3.09765625 19.5546875 C-3.30390625 18.4821875 -3.51015625 17.4096875 -3.72265625 16.3046875 C-4.81537389 12.44711886 -4.81537389 12.44711886 -7.72265625 10.1171875 C-11.75683087 8.24951407 -14.7322174 7.6694494 -19.09765625 8.5546875 C-23.35432324 10.79631175 -23.35432324 10.79631175 -26.09765625 14.5546875 C-26.63524212 18.4969839 -26.36570529 20.14776967 -24.15234375 23.5078125 C-20.76431817 27.37949883 -16.57342852 28.79740442 -11.84765625 30.5546875 C6.71065754 37.94457461 6.71065754 37.94457461 10.31640625 45.37109375 C11.94349748 51.43472042 11.96972527 58.64534282 9.71484375 64.5546875 C5.41367789 71.67385858 -0.2437053 75.27845261 -8.09765625 77.5546875 C-17.07782237 78.56548819 -24.69655376 78.01646367 -32.09765625 72.5546875 C-36.98335281 68.20578069 -39.98006707 64.13604601 -41.09765625 57.5546875 C-41.09765625 55.9046875 -41.09765625 54.2546875 -41.09765625 52.5546875 C-37.13765625 52.5546875 -33.17765625 52.5546875 -29.09765625 52.5546875 C-28.56140625 53.9571875 -28.02515625 55.3596875 -27.47265625 56.8046875 C-25.45229337 61.27482836 -23.73429745 63.54256019 -19.09765625 65.5546875 C-14.25950421 66.37986604 -11.02806616 66.04526727 -6.66015625 63.7421875 C-3.42824652 60.98324017 -2.2109353 59.42855446 -1.66015625 55.1796875 C-1.80124486 51.48857251 -1.80124486 51.48857251 -4.09765625 48.8671875 C-8.69037315 45.32696823 -13.578152 43.15007304 -18.92578125 41.03125 C-27.64309391 37.51200848 -34.67367049 34.40265902 -39.09765625 25.5546875 C-39.93715965 17.55283865 -40.05985625 10.89787802 -34.94921875 4.39453125 C-25.88339879 -4.6139101 -11.0037566 -7.25387307 0 0 Z " fill="#040404" transform="translate(626.09765625,770.4453125)"/>
<path d="M0 0 C5.27486356 4.29845265 8.58168053 8.97343873 9.4609375 15.74609375 C9.5846875 16.98359375 9.7084375 18.22109375 9.8359375 19.49609375 C5.5459375 19.49609375 1.2559375 19.49609375 -3.1640625 19.49609375 C-3.4115625 18.40296875 -3.6590625 17.30984375 -3.9140625 16.18359375 C-5.19976031 12.3907852 -5.75120183 11.35765411 -9.1640625 9.49609375 C-13.73004579 7.97409932 -17.56298964 7.74892641 -21.9765625 9.80859375 C-24.85278386 12.02739308 -26.04043101 13.70131989 -26.6015625 17.30859375 C-26.02785173 21.48848653 -24.28098864 23.8003385 -21.1640625 26.49609375 C-17.82483668 28.33131931 -14.34241028 29.6940095 -10.7890625 31.05859375 C6.36128651 37.77221076 6.36128651 37.77221076 10.1796875 45.27734375 C11.93391014 51.20828697 11.86881639 58.49833252 9.8359375 64.37109375 C6.12487146 70.16963443 0.89634812 74.96709712 -5.7734375 77.0546875 C-14.28628674 78.62650444 -22.38161882 78.54034426 -29.97265625 74.11328125 C-35.94523919 69.70570667 -39.89602369 64.96343343 -41.1640625 57.49609375 C-41.1640625 55.84609375 -41.1640625 54.19609375 -41.1640625 52.49609375 C-37.2040625 52.49609375 -33.2440625 52.49609375 -29.1640625 52.49609375 C-28.6278125 53.89859375 -28.0915625 55.30109375 -27.5390625 56.74609375 C-25.53066114 61.20530655 -23.76656481 63.46037158 -19.1640625 65.49609375 C-13.84634327 66.41074146 -9.68571493 65.54558027 -5.1640625 62.49609375 C-2.95684911 59.7738639 -2.23958053 57.9492019 -1.6640625 54.49609375 C-2.3592196 50.32515116 -3.86907279 49.10462727 -7.1640625 46.49609375 C-11.62487394 43.79694225 -16.47152626 41.95415061 -21.2890625 39.99609375 C-28.54039081 36.99522958 -33.4851129 33.77925464 -38.1640625 27.49609375 C-40.08053307 21.74668205 -40.27551436 14.85755791 -38.36328125 9.07421875 C-35.13229637 3.34504969 -29.52760119 -1.00966926 -23.3046875 -3.140625 C-15.11044364 -4.53125398 -7.09417297 -4.65472687 0 0 Z " fill="#040404" transform="translate(1797.1640625,770.50390625)"/>
<path d="M0 0 C0.33 1.32 0.66 2.64 1 4 C2.11375 3.938125 3.2275 3.87625 4.375 3.8125 C19.00434531 3.91498228 32.08849897 12.98305747 42 23 C42.62390625 23.59039063 43.2478125 24.18078125 43.890625 24.7890625 C52.76466972 33.86297309 60 49.18323187 60 62 C45.58984551 61.27949228 33.58841097 54.0515825 23.6875 43.8125 C19.1947891 38.50796454 16.59988333 32.39206986 14 26 C13.6184375 25.10410156 13.236875 24.20820312 12.84375 23.28515625 C11.89747283 20.72232225 11.84511961 18.71040679 12 16 C11.37351562 15.93941406 10.74703125 15.87882813 10.1015625 15.81640625 C9.28429687 15.73261719 8.46703125 15.64882813 7.625 15.5625 C6.81289063 15.48128906 6.00078125 15.40007813 5.1640625 15.31640625 C3 15 3 15 1 14 C0.67 15.32 0.34 16.64 0 18 C0 16.68 0 15.36 0 14 C-3.3 14 -6.6 14 -10 14 C-10 10.37 -10 6.74 -10 3 C-6.7 3 -3.4 3 0 3 C0 2.01 0 1.02 0 0 Z " fill="#FCB019" transform="translate(588,974)"/>
<path d="M0 0 C3.96 0 7.92 0 12 0 C12.01458252 0.8470752 12.02916504 1.69415039 12.04418945 2.56689453 C12.10551177 5.73181934 12.17971352 8.89611504 12.26245117 12.06054688 C12.29555386 13.4259925 12.32363086 14.79157013 12.34643555 16.15722656 C12.38024991 18.12853224 12.43408286 20.09946191 12.48828125 22.0703125 C12.51446533 23.25383301 12.54064941 24.43735352 12.56762695 25.65673828 C13.04198448 29.32463892 14.24156442 31.77556782 16 35 C16 35.66 16 36.32 16 37 C16.65355469 37.25523437 17.30710937 37.51046875 17.98046875 37.7734375 C21.78942242 39.32067094 25.54921761 40.97043027 29.3125 42.625 C33.1178125 44.295625 33.1178125 44.295625 37 46 C37.33 37.75 37.66 29.5 38 21 C41.96 21 45.92 21 50 21 C50 40.14 50 59.28 50 79 C46.04 79 42.08 79 38 79 C37.94392578 77.57107422 37.94392578 77.57107422 37.88671875 76.11328125 C37.82097656 74.85902344 37.75523438 73.60476563 37.6875 72.3125 C37.62949219 71.07113281 37.57148437 69.82976562 37.51171875 68.55078125 C36.97410578 64.82032178 36.34986923 62.91937902 34 60 C31.56548873 58.35957204 31.56548873 58.35957204 28.6875 57.125 C27.62660156 56.6196875 26.56570313 56.114375 25.47265625 55.59375 C23.70687199 54.78335632 21.94078407 53.97349247 20.16748047 53.1796875 C11.29390156 49.18925748 4.67720074 45.73030609 0.94873047 36.35717773 C-0.12263579 32.56604097 -0.25358335 29.09525277 -0.1953125 25.1953125 C-0.1924826 24.4713327 -0.18965271 23.74735291 -0.18673706 23.00143433 C-0.17562087 20.7091151 -0.15053312 18.41719937 -0.125 16.125 C-0.1149591 14.56250568 -0.10583519 13.00000518 -0.09765625 11.4375 C-0.07570973 7.62484662 -0.04124013 3.81249152 0 0 Z " fill="#030303" transform="translate(997,768)"/>
<path d="M0 0 C3.96 0 7.92 0 12 0 C12.01401855 1.25490234 12.01401855 1.25490234 12.02832031 2.53515625 C12.0726418 5.67416015 12.13439195 8.81222868 12.20751953 11.95068359 C12.24923272 13.9629854 12.27128531 15.97566395 12.29296875 17.98828125 C12.2640059 28.28691302 12.2640059 28.28691302 17 37 C20.41397164 39.28856627 23.9735163 40.89938636 27.75 42.5 C31.1325 43.985 34.515 45.47 38 47 C38 38.42 38 29.84 38 21 C41.96 21 45.92 21 50 21 C50 40.14 50 59.28 50 79 C46.04 79 42.08 79 38 79 C37.94392578 77.57107422 37.94392578 77.57107422 37.88671875 76.11328125 C37.82097656 74.85902344 37.75523437 73.60476563 37.6875 72.3125 C37.62949219 71.07113281 37.57148438 69.82976562 37.51171875 68.55078125 C36.97262543 64.81004972 36.36478558 62.92150615 34 60 C31.39679243 58.25745774 31.39679243 58.25745774 28.375 56.9375 C27.30507812 56.43089844 26.23515625 55.92429687 25.1328125 55.40234375 C22.5181452 54.23193781 19.89099437 53.10884955 17.25 52 C9.74922333 48.65726257 4.59567809 44.71499461 1.00341797 37.21435547 C-1.10370793 30.46437504 -0.50563021 23.37287273 -0.3125 16.375 C-0.28737029 14.78258734 -0.26456541 13.19013621 -0.24414062 11.59765625 C-0.18954877 7.73080587 -0.10354351 3.8658366 0 0 Z " fill="#010101" transform="translate(2168,768)"/>
<path d="M0 0 C3.63 0.66 7.26 1.32 11 2 C11.32871094 3.21623047 11.32871094 3.21623047 11.6640625 4.45703125 C16.11170326 19.98761425 23.08589937 32.05471893 37.1875 40.49609375 C45.62525006 45.00794621 53.29111565 47.00670627 62.8125 47.5625 C63.85180664 47.62727539 63.85180664 47.62727539 64.91210938 47.69335938 C66.60788686 47.79861453 68.30392052 47.89972863 70 48 C70 51.63 70 55.26 70 59 C50.18895957 59.67880468 33.93509166 55.10186266 18.76171875 41.8125 C8.87660605 31.74562426 -0.15805781 17.3569395 -0.1875 2.8125 C-0.125625 1.884375 -0.06375 0.95625 0 0 Z " fill="#050504" transform="translate(589,988)"/>
<path d="M0 0 C19.00721861 -0.79196744 35.00886187 3.97747647 49.5390625 16.6328125 C61.53229851 28.16916333 68.47094871 42.43527766 70 59 C66.04 58.34 62.08 57.68 58 57 C57.62875 55.246875 57.2575 53.49375 56.875 51.6875 C53.38994181 37.95701613 45.46959837 26.99877327 33.375 19.5625 C24.64314501 14.39884748 17.22799669 12.02359598 7.1875 11.4375 C6.14819336 11.37272461 6.14819336 11.37272461 5.08789062 11.30664062 C3.39211314 11.20138547 1.69607948 11.10027137 0 11 C-0.33 11.99 -0.66 12.98 -1 14 C-0.67 9.38 -0.34 4.76 0 0 Z " fill="#05A653" transform="translate(718,977)"/>
<path d="M0 0 C19.68 0 19.68 0 24.62109375 4.46484375 C27.32800401 7.60117887 28.88340128 10.02834397 29.375 14.125 C28.88458752 19.1925956 27.41484627 22.23905444 24 26 C20.8457891 28.36565817 17.48811857 30.17476447 14 32 C13.01386719 32.55042969 12.02773438 33.10085938 11.01171875 33.66796875 C3.60383858 37.79872047 3.60383858 37.79872047 0 39 C0 26.13 0 13.26 0 0 Z " fill="#F6F6F6" transform="translate(454,779)"/>
<path d="M0 0 C19.325 0 19.325 0 26.0625 5.5 C28.66282991 9.11156932 28.56019972 12.8990051 28.56640625 17.21875 C27.52184409 22.34791042 25.10698594 25.24610441 20.828125 28.16015625 C19.64307396 28.80846829 18.44999203 29.4422794 17.25 30.0625 C15.9992616 30.73952307 14.74925713 31.4179038 13.5 32.09765625 C12.345 32.72542969 11.19 33.35320313 10 34 C8.40666206 34.98398102 6.82093098 35.9806275 5.25 37 C2 39 2 39 0 39 C0 26.13 0 13.26 0 0 Z " fill="#F7F7F7" transform="translate(1625,779)"/>
<path d="M0 0 C3.5677811 2.35149209 5.84221079 4.99692157 7.75 8.8125 C7.83543895 10.91778933 7.85714725 13.02581157 7.84765625 15.1328125 C7.84443359 16.38964844 7.84121094 17.64648438 7.83789062 18.94140625 C7.82951172 20.26011719 7.82113281 21.57882812 7.8125 22.9375 C7.80748489 24.27734211 7.80292201 25.617186 7.79882812 26.95703125 C7.78701086 30.24223206 7.77053617 33.52734397 7.75 36.8125 C6.62851563 36.18021484 6.62851563 36.18021484 5.484375 35.53515625 C4.49953125 34.98730469 3.5146875 34.43945312 2.5 33.875 C1.52546875 33.32972656 0.5509375 32.78445313 -0.453125 32.22265625 C-4.98083807 29.93982885 -8.95944542 29.60283882 -14 29.25 C-15.17046875 29.16621094 -16.3409375 29.08242188 -17.546875 28.99609375 C-18.43890625 28.93550781 -19.3309375 28.87492188 -20.25 28.8125 C-20.39601614 25.27127173 -20.4843056 21.73082356 -20.5625 18.1875 C-20.60439453 17.18847656 -20.64628906 16.18945312 -20.68945312 15.16015625 C-20.82758478 6.81700453 -20.82758478 6.81700453 -17.84375 3.1875 C-12.36592497 -1.82833979 -6.98734075 -2.55306681 0 0 Z " fill="#FBFBFB" transform="translate(1552.25,780.1875)"/>
<path d="M0 0 C3.5677811 2.35149209 5.84221079 4.99692157 7.75 8.8125 C7.83543895 10.91778933 7.85714725 13.02581157 7.84765625 15.1328125 C7.84443359 16.38964844 7.84121094 17.64648438 7.83789062 18.94140625 C7.82951172 20.26011719 7.82113281 21.57882812 7.8125 22.9375 C7.80748489 24.27734211 7.80292201 25.617186 7.79882812 26.95703125 C7.78701086 30.24223206 7.77053617 33.52734397 7.75 36.8125 C6.88117188 36.31878906 6.01234375 35.82507813 5.1171875 35.31640625 C3.96476562 34.67574219 2.81234375 34.03507813 1.625 33.375 C0.48804688 32.73691406 -0.64890625 32.09882812 -1.8203125 31.44140625 C-7.89262173 28.55740517 -13.66368045 28.68077361 -20.25 28.8125 C-20.36689626 25.43779496 -20.43747934 22.0636157 -20.5 18.6875 C-20.53351563 17.73617187 -20.56703125 16.78484375 -20.6015625 15.8046875 C-20.68536866 9.77064404 -20.25856555 6.41056049 -16.25 1.8125 C-11.25059415 -2.35367154 -5.82611284 -2.128772 0 0 Z " fill="#FCFCFC" transform="translate(381.25,780.1875)"/>
<path d="M0 0 C17 0 17 0 24 3 C27.11061244 6.34989032 28.26581613 9.01273493 28.5 13.5 C28.24885265 18.0434838 27.12061825 20.57493119 24 24 C16.81964698 29.75666234 8.2022349 33.89888255 0 38 C0 25.46 0 12.92 0 0 Z " fill="#FCFCFC" transform="translate(272,780)"/>
<path d="M0 0 C19.59459459 0 19.59459459 0 25 4 C28.02758197 7.40602972 28.49509928 10.47546485 28.2734375 15.01953125 C27.60252327 19.87886714 25.47312129 22.864128 21.75 25.875 C14.9863355 30.65009647 7.39048731 34.30475635 0 38 C0 25.46 0 12.92 0 0 Z " fill="#FCFCFC" transform="translate(1443,780)"/>
<path d="M0 0 C0 20.79 0 41.58 0 63 C-3.96 63 -7.92 63 -12 63 C-12 42.87 -12 22.74 -12 2 C-6 0 -6 0 0 0 Z " fill="#000000" transform="translate(1719,784)"/>
<path d="M0 0 C0 20.79 0 41.58 0 63 C-3.96 63 -7.92 63 -12 63 C-12 42.87 -12 22.74 -12 2 C-6 0 -6 0 0 0 Z " fill="#000000" transform="translate(548,784)"/>
<path d="M0 0 C12.90949411 3.38609682 23.25155803 11.96913989 30.01171875 23.40234375 C33.29134147 29.47686765 35.86056132 35.02806604 36 42 C26.20399261 40.50362942 17.28889353 33.2181538 11.125 25.71875 C5.49305134 18.04764752 0.6431196 9.64679394 0 0 Z " fill="#FAFAF8" transform="translate(740,991)"/>
<path d="M0 0 C-1.20642922 13.87393606 -9.07650291 25.3656155 -19.55859375 34.20703125 C-30.16993464 42 -30.16993464 42 -36 42 C-33.96593023 28.89155036 -27.42055985 16.66644236 -16.84375 8.58984375 C-4.91481751 0 -4.91481751 0 0 0 Z " fill="#F7FAF9" transform="translate(706,991)"/>
<path d="M0 0 C-2.84579108 14.30384466 -8.973457 26.14439772 -20.77734375 35.109375 C-25.6934265 38.37327631 -30.20012542 40.84002508 -36 42 C-32.11462348 24.33919765 -24.38462634 13.03077637 -9 3 C-3.56124722 0 -3.56124722 0 0 0 Z " fill="#FCFCFB" transform="translate(566,991)"/>
<path d="M0 0 C6.20824713 0.31837165 10.19024089 3.39472911 15 7 C16.02673828 7.75796875 16.02673828 7.75796875 17.07421875 8.53125 C26.88008552 16.39135539 32.25317186 26.89227072 35 39 C35 39.66 35 40.32 35 41 C24.41365055 39.35115265 14.42691523 30.95638594 8.1796875 22.55078125 C3.93419815 15.75586487 -0.37651927 8.1820533 0 0 Z " fill="#FCFBF8" transform="translate(601,992)"/>
<path d="M0 0 C3.96 0 7.92 0 12 0 C12 3.3 12 6.6 12 10 C6.06 10.495 6.06 10.495 0 11 C0 7.37 0 3.74 0 0 Z " fill="#040404" transform="translate(1707,768)"/>
<path d="M0 0 C3.96 0 7.92 0 12 0 C12 3.3 12 6.6 12 10 C6.06 10.495 6.06 10.495 0 11 C0 7.37 0 3.74 0 0 Z " fill="#040404" transform="translate(536,768)"/>
</svg>
